<svg width="576" height="423" viewBox="0 0 576 423" fill="none" xmlns="http://www.w3.org/2000/svg">
<circle opacity="0.7" cx="152.5" cy="152.5" r="152.5" fill="#F2F2F2"/>
<g clip-path="url(#clip0)">
<path d="M115.22 404.623L144.413 362.639L115.205 409.19L115.188 413.967C113.106 413.949 111.045 413.881 109.005 413.763C108.996 412.679 111.477 353.003 111.372 351.923C111.516 351.882 111.596 346.279 111.654 346.034L81.1545 300.155L111.686 341.692L111.777 342.919L113.589 296.555L87.3715 249.076L113.796 288.408C113.806 287.778 115.047 192.581 115.059 191.993C115.066 192.305 115.636 267.751 115.64 268.069L140.714 237.701L115.616 274.595L115.488 316.09L138.756 275.964C109.718 334.482 116.144 314.004 115.402 345.265L149.201 289.391L115.373 353.314L115.22 404.623Z" fill="#D0CDE1"/>
<path d="M561.839 410.323L574.005 392.827L561.833 412.226L561.826 414.217C560.958 414.209 560.1 414.181 559.25 414.132C559.246 413.68 560.28 388.811 560.236 388.362C560.296 388.345 560.329 386.01 560.353 385.907L547.644 366.789L560.367 384.098L560.405 384.61L561.16 365.288L550.234 345.503L561.246 361.893C561.25 361.631 561.767 321.96 561.772 321.715C561.775 321.845 562.013 353.285 562.015 353.418L572.463 340.763L562.005 356.137L561.951 373.429L571.648 356.707C559.547 381.094 562.225 372.56 561.916 385.587L576 362.303L561.903 388.941L561.839 410.323Z" fill="#D0CDE1"/>
<path d="M327.691 423C463.935 423 574.382 418.669 574.382 413.326C574.382 407.983 463.935 403.652 327.691 403.652C191.447 403.652 81 407.983 81 413.326C81 418.669 191.447 423 327.691 423Z" fill="#D0CDE1"/>
<path d="M447.355 239.258H165.685V407.338H447.355V239.258Z" fill="#3F3D56"/>
<path d="M235.394 239.258C235.106 256.945 227.884 273.81 215.287 286.216C202.689 298.623 185.724 305.577 168.051 305.579C167.259 305.579 166.472 305.565 165.685 305.537V239.258H235.394Z" fill="#6C63FF"/>
<path d="M320.298 407.338H293.509C294.517 404.594 296.342 402.226 298.737 400.553C301.132 398.88 303.983 397.983 306.903 397.983C309.824 397.983 312.675 398.88 315.07 400.553C317.465 402.226 319.29 404.594 320.298 407.338Z" fill="#6C63FF"/>
<path d="M447.354 320.398V377.013C440.092 376.658 433.245 373.52 428.231 368.251C423.218 362.981 420.421 355.983 420.421 348.706C420.421 341.429 423.218 334.43 428.231 329.161C433.245 323.891 440.092 320.753 447.354 320.398Z" fill="#6C63FF"/>
<path d="M395.609 300.334H217.918C213.335 300.334 209.62 304.053 209.62 308.64V308.64C209.62 313.227 213.335 316.946 217.918 316.946H395.609C400.193 316.946 403.908 313.227 403.908 308.64C403.908 304.053 400.193 300.334 395.609 300.334Z" fill="white"/>
<path d="M395.609 333.07H217.918C213.335 333.07 209.62 336.789 209.62 341.376V341.376C209.62 345.964 213.335 349.683 217.918 349.683H395.609C400.193 349.683 403.908 345.964 403.908 341.376C403.908 336.789 400.193 333.07 395.609 333.07Z" fill="white"/>
<path d="M395.609 365.806H344.089C339.505 365.806 335.79 369.525 335.79 374.113C335.79 378.7 339.505 382.419 344.089 382.419H395.609C400.192 382.419 403.908 378.7 403.908 374.113C403.908 369.525 400.192 365.806 395.609 365.806Z" fill="white"/>
<path d="M492.022 176.649C492.022 176.649 499.767 179.664 500.198 189.569C500.628 199.475 498.046 227.039 498.046 227.039C498.046 227.039 507.513 240.821 500.198 244.697C492.883 248.573 492.022 229.192 492.022 229.192L483.416 188.277C483.416 188.277 488.58 176.218 492.022 176.649Z" fill="#A0616A"/>
<path d="M412.847 208.52C412.847 208.52 394.345 220.579 393.484 211.104C392.623 201.629 399.078 164.59 399.078 164.59C399.078 164.59 399.938 148.654 408.975 152.531C418.011 156.407 406.393 169.758 406.393 169.758L407.684 199.906L416.29 199.475L412.847 208.52Z" fill="#A0616A"/>
<path d="M442.538 219.717C442.538 219.717 385.739 198.614 388.751 223.163C391.763 247.712 406.393 278.721 406.393 278.721L411.557 286.904H422.314L415.429 242.544C415.429 242.544 439.956 256.326 447.271 254.172C447.271 254.172 456.738 317.483 460.18 322.22C463.622 326.958 469.647 384.239 469.647 384.239L475.24 391.13H485.998V294.226C485.998 294.226 504.501 233.93 490.301 230.915C476.101 227.9 442.538 219.717 442.538 219.717Z" fill="#2F2E41"/>
<path d="M410.266 281.305C410.266 281.305 407.684 276.568 403.381 281.305C399.078 286.043 388.751 291.642 388.751 291.642C388.751 291.642 366.375 296.81 384.448 301.117C402.52 305.424 404.672 301.117 404.672 301.117C404.672 301.117 407.684 301.978 410.266 302.839C412.847 303.701 429.629 300.686 429.629 298.102C429.629 295.518 423.932 280.074 421.617 282.413C419.302 284.751 410.266 281.305 410.266 281.305Z" fill="#2F2E41"/>
<path d="M476.065 386.867C476.065 386.867 469.72 381.637 468.227 383.131C466.735 384.625 458.897 394.711 458.897 394.711C458.897 394.711 437.998 410.773 457.031 413.388C476.065 416.003 474.945 408.906 474.945 408.906H480.917C481.663 408.906 491.74 404.423 491.366 402.555C490.993 400.688 486.515 385.458 485.022 386.536C483.529 387.614 476.065 386.867 476.065 386.867Z" fill="#2F2E41"/>
<path d="M418.441 160.283C426.521 160.283 433.071 153.727 433.071 145.64C433.071 137.552 426.521 130.996 418.441 130.996C410.361 130.996 403.811 137.552 403.811 145.64C403.811 153.727 410.361 160.283 418.441 160.283Z" fill="#A0616A"/>
<path d="M428.768 143.917C428.768 143.917 439.956 153.392 447.701 153.392C455.447 153.392 436.514 171.05 436.514 171.05L419.732 155.976L428.768 143.917Z" fill="#A0616A"/>
<path d="M433.072 171.05L432.736 167.657C432.736 167.657 441.247 152.531 443.829 151.239C446.411 149.947 448.132 149.947 448.132 149.947C448.132 149.947 456.738 140.902 466.204 145.64C475.671 150.377 498.046 180.525 498.046 180.525C498.046 180.525 482.125 181.817 484.277 194.307C484.277 194.307 500.198 235.222 495.895 235.653C491.592 236.083 478.683 233.069 465.344 239.098C452.005 245.128 445.98 241.252 445.98 241.252L439.096 218.856C439.096 218.856 426.187 211.534 426.617 205.074L407.899 213.472L409.62 197.537L421.023 184.401C421.023 184.401 418.872 182.679 433.072 171.05Z" fill="#575A89"/>
<path d="M404.983 147.223C404.402 147.87 403.673 148.366 402.859 148.671C402.026 148.906 400.976 148.618 400.644 147.817L401.262 147.012L399.408 145.858L400.216 144.909L398.722 143.286L399.901 142.349L397.656 140.743C400.566 135.991 403.712 131.18 408.305 128.03C412.898 124.88 419.316 123.761 424.022 126.74C426.465 128.287 428.192 130.742 429.576 133.283C432.359 138.391 434.812 143.371 435.174 149.179C433.426 147.475 430.874 146.515 429.126 144.811C428.352 143.989 427.475 143.27 426.516 142.673C424.688 141.641 422.5 141.55 420.453 141.084C418.732 140.693 417.615 139.917 416.313 138.806C414.764 137.486 414.701 137.997 413.137 139.483C410.421 142.065 407.703 144.645 404.983 147.223Z" fill="#2F2E41"/>
</g>
<defs>
<clipPath id="clip0">
<rect width="495" height="298" fill="white" transform="translate(81 125)"/>
</clipPath>
</defs>
</svg>
